<?xml version="1.0" encoding="UTF-8"?><svg id="_360" xmlns="http://www.w3.org/2000/svg" viewBox="0 0 502.1 520.36"><circle cx="238.95" cy="281.42" r="238.95" style="fill:#fff;"/><path d="M377.06,162.44c-13.3,0-24.09,10.79-24.09,24.09s10.79,24.09,24.09,24.09,24.09-10.79,24.09-24.09-10.79-24.09-24.09-24.09ZM377.06,200.61c-7.78,0-14.08-6.3-14.08-14.08s6.3-14.08,14.08-14.08,14.08,6.3,14.08,14.08-6.3,14.08-14.08,14.08Z" style="fill:#272727;"/><path d="M53.34,333.22c.37-.13.75.19.77.58" style="fill:#272727;"/><path d="M275.35,369.53c10.06-.7,23.89-2.11,40.03-5.15,34.91-6.57,62.08-16.18,67.08-18.36,19.75-8.63,45.97-22.79,48.02-41.44.86-7.79-4.44-16.46-4.45-16.46-2.3-4.09-9.13-11.19-13.32-14.28-7.74-5.7-13.77-9.85-19.67-12.23-7.26-2.93-9.49-3.73-14.48-4.75-.46-.09-.9.19-.92.58-.16,2.72-.56,5.75-.72,8.47-.02.28.19.53.51.62,4.74,1.33,11.4,4.53,18.61,8.5,3.4,1.87,20.24,13.69,19.42,24.62-1.53,20.5-65.37,33.65-100.09,37.59-16.79,1.9-30.78,2.11-40.04,1.98v30.31Z" style="fill:#272727;"/><path d="M51.84,288.12c2.3-4.09,9.13-11.19,13.32-14.28,7.74-5.7,13.77-9.85,19.67-12.23,7.26-2.93,9.49-3.73,14.48-4.75.46-.09.9.19.92.58.16,2.72.56,5.75.72,8.47.02.28-.19.53-.51.62-4.74,1.33-11.4,4.53-18.61,8.5-3.4,1.87-20.24,13.69-19.42,24.62,1.53,20.5,65.37,33.65,100.09,37.59,15.68,1.78,28.92,2.08,38.14,2v-2.84s0-23.98,0-23.98l64.24,40.71-64.24,36.64v-20.4c-9.88-.74-22.96-2.15-38.13-5-34.91-6.57-62.08-16.18-67.08-18.36-19.75-8.63-45.97-22.79-48.02-41.44-.86-7.79,4.45-16.46,4.45-16.46Z" style="fill:#272727;"/><path d="M187.3,243.01c4.25,1.44,7.42,3.78,9.5,7.05,2.08,3.26,3.12,10.91,3.12,22.94,0,8.93-1.02,15.86-3.05,20.79-2.04,4.93-5.55,8.68-10.55,11.25-5,2.57-11.4,3.85-19.22,3.85-8.88,0-15.85-1.49-20.92-4.48-5.06-2.98-8.39-6.64-9.99-10.96-1.6-4.32-2.39-11.83-2.39-22.51v-8.88h28.03v18.25c0,4.86.29,7.94.87,9.26.58,1.32,1.86,1.98,3.85,1.98,2.17,0,3.61-.83,4.3-2.5.69-1.67,1.04-6.01,1.04-13.04v-7.77c0-4.3-.49-7.45-1.46-9.44-.97-1.99-2.41-3.29-4.3-3.92-1.9-.62-5.57-.98-11.03-1.08v-16.3c6.66,0,10.78-.25,12.35-.76,1.57-.51,2.71-1.62,3.4-3.33.69-1.71,1.04-4.39,1.04-8.05v-6.24c0-3.93-.41-6.52-1.21-7.77-.81-1.25-2.07-1.87-3.78-1.87-1.94,0-3.27.66-3.99,1.98-.72,1.32-1.08,4.13-1.08,8.43v9.23h-28.03v-9.57c0-10.73,2.45-17.98,7.35-21.75,4.9-3.77,12.7-5.65,23.38-5.65,13.37,0,22.43,2.61,27.2,7.83,4.76,5.22,7.15,12.48,7.15,21.77,0,6.29-.86,10.83-2.57,13.62-1.71,2.8-4.72,5.35-9.02,7.66Z" style="fill:#272727;"/><path d="M277.28,224.18h-28.03c0-5.23-.06-8.52-.17-9.89-.12-1.36-.67-2.51-1.67-3.43-1-.92-2.35-1.39-4.06-1.39-1.43,0-2.61.44-3.54,1.32-.93.88-1.46,2.01-1.6,3.4s-.21,4.19-.21,8.39v17.9c1.43-3.01,3.54-5.26,6.31-6.76,2.78-1.5,6.2-2.25,10.27-2.25,5.13,0,9.67,1.39,13.6,4.16,3.93,2.77,6.43,6.1,7.49,9.99,1.06,3.88,1.6,9.13,1.6,15.75v8.95c0,7.86-.3,13.71-.9,17.55-.6,3.84-2.21,7.39-4.82,10.65s-6.2,5.79-10.75,7.6c-4.56,1.8-9.86,2.71-15.92,2.71-7.54,0-13.71-1.04-18.52-3.12-4.81-2.08-8.52-5.08-11.14-8.98-2.61-3.91-4.14-8.01-4.58-12.31-.44-4.3-.66-12.65-.66-25.04v-15.54c0-13.37.2-22.3.59-26.81.39-4.51,2-8.78,4.82-12.8,2.82-4.02,6.67-7.04,11.55-9.05,4.88-2.01,10.51-3.02,16.89-3.02,7.86,0,14.31,1.27,19.36,3.82,5.04,2.54,8.65,6.13,10.82,10.75,2.17,4.63,3.26,10.45,3.26,17.48ZM249.25,259.21c0-3.98-.44-6.71-1.32-8.19-.88-1.48-2.31-2.22-4.3-2.22s-3.37.71-4.27,2.12c-.9,1.41-1.35,4.17-1.35,8.29v20.33c0,4.95.43,8.19,1.28,9.71.86,1.53,2.28,2.29,4.27,2.29,1.2,0,2.45-.59,3.75-1.77,1.29-1.18,1.94-4.36,1.94-9.54v-21.02Z" style="fill:#272727;"/><path d="M353.04,232.36v37.46c0,8.51-.46,14.71-1.39,18.59-.93,3.89-2.84,7.52-5.76,10.89-2.91,3.38-6.43,5.8-10.54,7.28-4.12,1.48-8.72,2.22-13.81,2.22-6.71,0-12.28-.78-16.72-2.32-4.44-1.55-7.98-3.97-10.62-7.25-2.64-3.28-4.51-6.74-5.62-10.37-1.11-3.63-1.67-9.4-1.67-17.31v-39.2c0-10.31.89-18.04,2.67-23.17,1.78-5.13,5.32-9.25,10.61-12.35,5.3-3.1,11.71-4.65,19.25-4.65,6.15,0,11.66,1.08,16.51,3.23,4.86,2.15,8.49,4.78,10.89,7.87,2.4,3.1,4.04,6.59,4.89,10.48.86,3.89,1.28,10.08,1.28,18.59ZM325.01,222.93c0-5.97-.29-9.7-.87-11.2-.58-1.5-1.93-2.25-4.06-2.25s-3.46.8-4.13,2.39c-.67,1.6-1.01,5.28-1.01,11.07v54.81c0,6.52.31,10.45.94,11.79.62,1.34,1.98,2.01,4.06,2.01s3.45-.79,4.09-2.36.97-5.11.97-10.61v-55.64Z" style="fill:#272727;"/></svg>