<?xml version="1.0" encoding="UTF-8"?><svg id="bell" xmlns="http://www.w3.org/2000/svg" viewBox="0 0 502.1 520.36"><path d="M242.79,346.58c133.67-.9,130.61-30.79,130.61-30.79.21-6.18-5.94-11.15-10.05-13.77-3.07-1.95-5.83-4.25-8.15-6.89-9.55-10.88-14.91-21.46-17.62-28.01-1.47-3.55-3.03-7.06-4.78-10.51-9.52-18.76-12.14-68.16-12.14-68.16-.21-3.55-2.48-29.16-2.48-29.16-.78-10.9-4.14-19.53-5.24-22.11-.26-.62-.5-1.25-.74-1.87-6.34-16.74-24.31-24.58-40.7-28.23-6.48-1.44-17.66-2.97-31.13-3.12-.03,0-.06,0-.09,0-13.98-.02-24.65,1.68-31.13,3.12-16.38,3.65-34.35,11.49-40.7,28.23-.24.63-.48,1.26-.74,1.87-1.1,2.57-4.46,11.21-5.24,22.11,0,0-2.28,25.61-2.48,29.16,0,0-2.62,49.4-12.14,68.16-1.75,3.45-3.31,6.96-4.78,10.51-1.77,4.27-4.66,10.25-9.1,16.9-5.01,7.5-11.64,14.04-19.15,19.72-3.72,2.81-7.75,7.03-7.58,12.05,0,0-2.9,28.38,120.56,30.67" style="fill:#fdf0d5;"/><path d="M243.75,334.25c6.47.41,114.21-8.49,114.21-20.73,0-11.35-52.25-20.55-116.7-20.55s-116.7,9.2-116.7,20.55,80.35,20.19,89.8,20.68c1.89.1,11.09.39,17.17.45" style="fill:#272727;"/><path d="M347.19,163.28l14.13-9.56c4.75,7.12,16,26.02,15.91,52.51-.09,26.57-11.53,45.44-16.34,52.51-4.57-2.91-9.14-5.82-13.71-8.73,3.98-6.07,13.13-21.83,13.01-43.79-.11-21.47-9.02-36.86-13.01-42.96Z" style="fill:#fdf0d5;"/><path d="M130.7,163.28l-14.13-9.56c-4.75,7.12-16,26.02-15.91,52.51.09,26.57,11.53,45.44,16.34,52.51,4.57-2.91,9.14-5.82,13.71-8.73-3.98-6.07-13.13-21.83-13.01-43.79.11-21.47,9.02-36.86,13.01-42.96Z" style="fill:#fdf0d5;"/><path d="M100,141.32l-13.39-10.75c-6.87,10.29-23.05,37.75-22.92,76.06.13,38.41,15.92,65.03,22.88,75.26,6.61-4.21,7.48-5.35,14.09-9.56-7.55-8.57-19.57-33.78-19.78-65.71-.21-31.62,11.84-56.77,19.12-65.31Z" style="fill:#fdf0d5;"/><path d="M377.89,141.32l13.39-10.75c6.87,10.29,23.05,37.75,22.92,76.06-.13,38.41-15.92,65.03-22.88,75.26-6.61-4.21-7.48-5.35-14.09-9.56,7.55-8.57,19.57-33.78,19.78-65.71.21-31.62-11.84-56.77-19.12-65.31Z" style="fill:#fdf0d5;"/><path d="M258.91,105.06c.23-9.61-8.71-17.93-19.65-17.93-10.93,0-19.37,8.43-19.14,18.04-4.25.72-9.52,1.32-14.63,2.77-5.2,1.48-9.81,3.15-13.79,4.79-.73-23.37,20.82-43.04,46.97-43.04,26.35,0,48.05,18.7,47.5,41.86-4.37-1.62-8.5-3.16-13.55-4.24-4.6-.98-9.5-1.59-13.71-2.26Z" style="fill:#fdf0d5;"/><path d="M241.67,331.75s13.56-24.78,3.02-31.57l-9.46-.44c-3.55,1.78-7.83,12.46-2.47,31.57,0,0-6.4,2.48-4.04,10.33,0,0-1.55,2.69.48,5.56,0,0-1.92,2.02-.19,8.03,0,0-2.87,1.58-1.45,9.4,0,0-2.14,3.25-1.11,9.25,0,0-2.22,1.51-1.39,9.07,0,0-2.49,2.91-1.64,9.56,0,0-2.51,3.66-1.54,8.82,0,0-2.81,3.24-1.71,9.15,0,0-2.98,3.81-2.1,9.3,0,0-2.07,1.68-1.71,6.33,0,0-8.17,5.33-1.25,16.12,0,0-21.05,33.11-22.55,43.67,0,0,4.47,4.32,5.62,4.35,0,0,2.71-8.76,3.75-8.62,0,0-2.09,4.69-1.08,10.13,0,0,10.65,2.83,12.79.35,0,0,8.58-36.21,11.15-39.34,0,0,.4-3.63-1.46-8.65,0,0,9.21,2.35,6.17-14.08,0,0,2.3-.27,1.34-7.92,0,0,3.16-1.57,1.79-9.34,0,0,3.26-1.46,1.72-8.79,0,0,3.08-2.57,1.76-10.33,0,0,3.25-.91,1.46-8.57,0,0,3.06-1.79,1.68-9.12,0,0,2.56-2.58,1.28-9.68,0,0,2.97-2.24,1.17-9.58,0,0,2.55-1.37.87-7.6,0,0,6.51-9.32-.89-17.36ZM242.88,305.42c1.68,1.36.58,5.6-6.23,20.15,0,0-4.21-16.85-1-20.44" style="fill:#ddd8ce;"/><path d="M240.35,292.97l-12.58.1c0,1.06.14,5.31,3.27,9.02,1.32,1.56,2.8,2.57,4.19,3.23,2.42,1.14,4.56,1.19,5.07,1.19.83,0,5.32-.09,8.91-4.02,3.52-3.86,3.61-8.49,3.67-9.41l-12.52-.1Z" style="fill:#d8ccb8;"/></svg>