<?xml version="1.0" encoding="UTF-8"?><svg id="icon3" xmlns="http://www.w3.org/2000/svg" xmlns:xlink="http://www.w3.org/1999/xlink" viewBox="0 0 502.1 520.36"><defs><filter id="drop-shadow-1" x="8.99" y="51.46" width="467.76" height="467.76" filterUnits="userSpaceOnUse"><feOffset dx="4" dy="4"/><feGaussianBlur result="blur" stdDeviation="5"/><feFlood flood-color="#343435" flood-opacity=".26"/><feComposite in2="blur" operator="in"/><feComposite in="SourceGraphic"/></filter></defs><circle cx="238.95" cy="281.42" r="218.77" style="fill:#780000; filter:url(#drop-shadow-1);"/><circle cx="238.95" cy="281.42" r="199.5" style="fill:#fdf0d5;"/><path d="M99.91,289.86v-2.99c0-3.01,2.44-5.45,5.45-5.45h32.92c3.36,0,6.32,2.24,7.22,5.48l25.08,89.57c.21.74,1.25.75,1.47,0l26.46-90.03c.88-2.98,3.61-5.03,6.72-5.03h33.64c2.87,0,5.19,2.32,5.19,5.19v.11c0,3.06-2.48,5.54-5.54,5.54h-8.67c-1.81,0-3.52.83-4.64,2.25h0c-1.29,1.64-1.99,3.66-1.99,5.74v74.11c0,3.01,1.03,5.94,2.93,8.28l1.43,1.76c.92,1.13,2.29,1.79,3.75,1.79h7.83c2.71,0,4.9,2.2,4.9,4.9h0c0,3.8-3.11,6.91-6.91,6.91h-36.05c-3.8,0-6.91-3.11-6.91-6.91v-.34c0-2.71,2.2-4.9,4.9-4.9h5.25c1.33,0,2.55-.71,3.22-1.86v-.02c1.76-3.02,2.68-6.45,2.68-9.94v-81.43c0-.79-.58-1.46-1.36-1.57h0c-.59-.08-1.16.28-1.34.85l-31.53,103.1c-.55,1.8-2.21,3.02-4.08,3.02h-1.9c-1.88,0-3.53-1.24-4.05-3.04l-29.91-102.73c-.17-.6-.72-1-1.34-1h0c-.93,0-1.69.76-1.69,1.69v84.42c0,1.99.6,3.92,1.73,5.56l.04.05c1.25,1.82,3.31,2.9,5.51,2.9h6.77c3.04,0,5.78,2.16,6.18,5.17.03.2.04.4.05.61h0c.13,3.51-2.64,6.38-6.15,6.38h-44.21c-3.71,0-6.46-3.02-6.13-6.71v-.12s.01,0,.01,0c.32-3.03,2.87-5.32,5.91-5.32h8.36c2.61,0,5.11-1.01,6.98-2.82h0c1.03-1,1.62-2.37,1.62-3.81v-78.32c0-1.71-.51-3.41-1.6-4.72-1.53-1.84-3.75-2.94-6.12-3.03-2.71-.11-6.53-.25-9.15-.29-1.64-.03-2.95-1.36-2.95-3.01Z" style="fill:#272727;"/><path d="M257.27,293.29h7.71c1.81,0,3.43,1.11,4.09,2.79l37.83,96.65c1.25,3.19,4.32,5.28,7.74,5.28h0c3.38,0,6.43-2.05,7.7-5.19l38.36-94.5c.34-.84.93-1.55,1.69-2.04l3.55-2.3c.71-.46,1.54-.71,2.39-.71h7.97c2.43,0,4.4-1.97,4.4-4.4v-3.08c0-2.43-1.97-4.4-4.4-4.4h-47.57c-2.43,0-4.4,1.97-4.4,4.4v2.39c0,2.43,1.97,4.4,4.4,4.4h8.4c2.1,0,3.9,1.48,4.31,3.53l1.12,5.58c.15.74.1,1.51-.13,2.24l-21.5,65.35c-1.32,4.01-6.97,4.04-8.34.05l-23.91-70.05c-.54-1.59-.13-3.34,1.05-4.53l1.22-1.22c.82-.82,1.94-1.29,3.11-1.29h9.5c2.43,0,4.4-1.97,4.4-4.4v-2.05c0-2.43-1.97-4.4-4.4-4.4h-46.25c-2.41,0-4.37,1.94-4.4,4.35,0,1.02-.02,2.1-.02,3.11,0,2.43,1.96,4.41,4.4,4.41Z" style="fill:#272727;"/><path d="M189.67,156.78c2.38,0,4.56-1.44,5.38-3.68.35-.94.6-2.05.62-3.3.03-1.44-.24-2.7-.62-3.76-.82-2.24-3-3.7-5.39-3.7h-53.76c-1.6,0-3.15.64-4.22,1.83-1.28,1.43-2.04,3.3-2.07,5.27-.03,2.04.72,3.98,2.03,5.47,1.07,1.21,2.64,1.87,4.26,1.87h12.48c3.17,0,5.77,2.6,5.77,5.77v77.5c0,3.19-2.58,5.77-5.77,5.77h-12.49c-1.61,0-3.17.65-4.24,1.85-1.3,1.46-2.05,3.36-2.05,5.37s.75,3.92,2.05,5.37c1.07,1.2,2.63,1.85,4.24,1.85h53.77c2.39,0,4.57-1.45,5.39-3.69.39-1.06.66-2.33.62-3.77-.03-1.25-.28-2.36-.63-3.3-.82-2.24-3-3.68-5.38-3.68h-11.57c-2.72,0-4.93-2.21-4.93-4.93v-78.34c0-3.19,2.58-5.77,5.77-5.77h10.72Z" style="fill:#272727;"/><path d="M236.89,217.13c.52.58,1.49.31,1.62-.46.65-3.69,1.7-8.47,3.42-13.91,3.11-9.83,6.82-16.77,10.91-24.41,3.69-6.89,5.71-10.67,9.45-15.53,4.01-5.22,8.04-9.13,11.22-11.88.45-.39.43-1.1-.05-1.46-3.19-2.42-10.79-7.28-20.91-6.75-14.66.77-23.09,12.25-25.27,15.22-1.68,2.29-7.3,10.48-7.47,21.99-.15,10.42,4.24,18.03,8.33,25.11,2.98,5.17,6.16,9.18,8.75,12.08Z" style="fill:#780000;"/><path d="M338.71,207.06c22.23-35.31,2.54-53.22-10.06-60.42-6.12-3.5-13.21-5.01-20.18-3.99-13.77,2.01-15.93,12-16.11,17.13-.08,2.21-.82,4.35-2.13,6.14l-13.99,19.12c-.06.08-.18,0-.13-.09,17.69-30.17,4.61-30.73,4.61-30.73-17.01,1.52-32.67,49.7-36.08,60.85-.43,1.4-.04,2.92,1.01,3.95l30.14,29.61c.93.92,2.28,1.3,3.55,1,41.63-9.63,59.39-42.57,59.39-42.57Z" style="fill:#780000;"/><path d="M242.05,224.77c-.85-.85-2.22-.85-3.06,0l-16.7,16.7c-1.59,1.59-1.59,4.16,0,5.74l25.51,25.51c1.59,1.59,4.16,1.59,5.74,0l15.36-15.36c1.59-1.59,1.59-4.16,0-5.74l-26.85-26.85Z" style="fill:#780000;"/><path d="M331.51,227.41c-1.46-1.46-2.77-.65-4.15.67-.35.33-1.03.98-1.84,1.76-3.02,2.87-6.26,5.5-9.69,7.87l-12.79,8.85c-1.71,1.18-2.99,2.89-3.61,4.87-.78,2.5-.98,5.4.22,6.6l14.06,14.06c1.95,1.95,5.1,1.95,7.05,0l23.84-22.8c1.95-1.95,3.41-5.19,1.46-7.13l-14.55-14.74Z" style="fill:#780000;"/><path d="M346.11,379.99h6.03c1.4,0,2.45.36,3.15,1.08.7.72,1.04,1.73,1.04,3.01,0,.82-.22,1.53-.65,2.12-.44.59-1.05,1.02-1.84,1.29.2.17.35.34.48.52.12.18.26.44.4.77l1.52,3.41h-2.73l-1.48-3.28c-.13-.29-.28-.49-.44-.6-.16-.11-.42-.16-.77-.16h-2.07v4.04h-2.63v-12.21ZM351.46,386.03c.72,0,1.26-.15,1.64-.46.38-.31.57-.81.57-1.49s-.17-1.18-.51-1.5c-.34-.32-.85-.47-1.54-.47h-2.87v3.92h2.71Z" style="fill:#272727;"/><circle cx="351.18" cy="386.03" r="11.99" style="fill:none; stroke:#272727; stroke-miterlimit:10; stroke-width:.75px;"/></svg>