<?xml version="1.0" encoding="UTF-8"?><svg id="punch" xmlns="http://www.w3.org/2000/svg" viewBox="0 0 512 512"><path d="M174.52,192.91l-9.78.2c-3.24.07-6.04,2.28-6.85,5.42-3.84,14.97-7.65,37.91-4.45,65.52,3.3,28.39,4.38,51.65,11.63,65.27,1.19,2.24,3.49,3.68,6.03,3.8,2.85.13,8.54-.08,11.38.06,5.13.24,14.34-5.82,12.62-10.67-7.91-22.34-24.39-77.2-13.44-120.55,1.17-4.65-2.34-9.15-7.13-9.05Z" style="fill:#fdf0d5; stroke:#000; stroke-miterlimit:10; stroke-width:9px;"/><path d="M110.26,192.91c-3.32,1.1-5.99,3.68-7.25,7.05-5.18,13.87-9.79,37.31-9.57,66.68.24,32.03,4.79,56.97,12.75,70.16,1.92,3.18,5.16,5.22,8.76,5.57,9.61.94,11.15,1.58,24.46-.24,6.1-.83,11.75-1.99,16.92-3.31,7.01-1.8,13.58-9.59,10.52-16.38-6.38-14.15-5.78-34.52-8.48-58.76-2.77-24.85-.3-46.07,2.92-61.47,1.47-7.04-3.32-13.81-10.23-14.48-5.7-.55-12.07-.75-19-.33-12.43.76-13.62,2.79-21.8,5.5Z" style="fill:#d82121; stroke:#000; stroke-miterlimit:10; stroke-width:9px;"/><path d="M373.51,347.72s70.28-11.16,65.26-90.92-39.6-100.96-80.88-103.74c0,0-109.88-10.6-161.19,26.77,0,0-23.43,12.83-21.2,54.66,0,0-1.12,69.72,23.43,98.17,0,0,38.49,36.58,87.5,42.38,6.14.73,12.46,1.23,16.75.95,12.51-.83,41.85,1.07,70.33-28.27Z" style="fill:#d82121; stroke:#000; stroke-miterlimit:10; stroke-width:11px;"/><path d="M314.57,245.52c.16-.5.88-.46.97.05,1.22,6.95,6.15,29.85,18.86,33.02l22.51,8.75s18.12,2.47,42.9-26.97c.17-.2.5-.1.52.17.18,3.84-.52,22.4-28.4,37.64,0,0,12.61,20.88,10.31,34.19-.28,1.64-.74,3.25-.98,4.9-.55,3.69-2.27,10.42-7.63,16.58l-13.26.85s10.9-16.89,8.21-32.02c0,0,.17-9.58-9.92-17.65,0,0-7.23-5.38-11.77-7.06,0,0-29.03-9.98-31.66-13.23,0,0-13.22-8.96-15.91-13.5,0,0-6.25-7.59-6.71-9.33-.03-.11.09-.21.2-.16,2.04.92,18.2,8.17,19.46,8.65,0,0-2.91-8.75,2.31-24.89Z"/><polygon points="111.71 236.16 141.64 238.89 122 251.38 144.38 267.5 115.01 264.7 114.2 257.68 121.25 258.12 109.4 249.97 119.61 243.96 112.75 243.15 111.71 236.16" style="stroke:#fff; stroke-miterlimit:10; stroke-width:.5px;"/><polygon points="136.49 267.77 137.37 275.36 122.58 279.49 136.14 285.59 139.06 282.86 140.38 294.31 104.6 277.89 136.49 267.77" style="stroke:#fff; stroke-miterlimit:10; stroke-width:.5px;"/></svg>