<?xml version="1.0" encoding="UTF-8"?><svg id="vr" xmlns="http://www.w3.org/2000/svg" viewBox="0 0 502.1 520.36"><circle cx="238.95" cy="281.42" r="238.95" style="fill:#fff;"/><path d="M69.58,269.52v55.73c0,.26.14.49.36.62l15.46,8.69c.51.29,1.13-.14,1.05-.72-1.59-10.86-2.72-23.54-2.63-37.71.08-12.89,1.16-24.52,2.65-34.62.08-.56-.49-.99-1.01-.74-2.55,1.24-6,3-15.5,8.12-.23.12-.37.36-.37.62Z"/><path d="M408.31,269.53v55.71c0,.26-.14.5-.37.63l-15.43,8.68c-.52.29-1.15-.14-1.06-.73,1.59-10.85,2.72-23.53,2.63-37.68-.08-12.89-1.16-24.51-2.65-34.6-.08-.57.5-1,1.02-.75,2.55,1.23,6,3,15.47,8.1.23.13.38.37.38.63Z"/><path d="M338.27,192.24c-5.26-1.92-10.83-2.87-16.43-2.87h-82.62s-82.62,0-82.62,0c-5.6,0-11.17.95-16.43,2.87-12.24,4.47-31.05,14.59-37.99,42.39-.11.45.39.8.78.54.08-.06.17-.12.27-.18,14.7-9.78,31.97-14.98,49.62-14.98h86.38s86.38,0,86.38,0c17.65,0,34.92,5.2,49.62,14.98.08.06.17.11.24.16.39.26.91-.1.79-.56-6.94-27.78-25.74-37.9-37.98-42.37Z"/><path d="M372.29,246.78c-6.4-8.17-16.13-15.69-30.67-17.49-.74-.09-1.49-.11-2.23-.13-10.9-.35-97.34-.32-100.44-.01-3.11-.3-89.54-.33-100.44.01-.75.02-1.49.04-2.23.13-14.54,1.81-24.27,9.32-30.67,17.49-7.52,9.59-11.44,21.53-11.44,33.72v36.27c0,8.03,1.56,16.01,4.79,23.37,6.02,13.67,15.97,21.83,24.87,26.66,8.18,4.44,17.37,6.68,26.68,6.68h51.62c12.98-.36,20.46-14.05,20.46-14.05,6.86-17.63,14.98-17.58,16.27-17.45v.02s.03,0,.09-.01c.06,0,.09.01.09.01v-.02c1.29-.13,9.42-.17,16.27,17.45,0,0,7.47,13.7,20.46,14.05h51.62c9.31,0,18.5-2.25,26.68-6.68,8.91-4.83,18.85-13,24.87-26.66,3.24-7.35,4.79-15.33,4.79-23.37v-36.27c0-12.19-3.91-24.12-11.44-33.72ZM258.05,245.01c-.16,2.16-2.02,3.79-4.19,3.79h-29.3c-2.28,0-4.18-1.81-4.21-4.08,0-.02,0-.05,0-.07s0-.05,0-.07c.02-2.28,1.93-4.08,4.21-4.08h29.3c2.16,0,4.03,1.63,4.19,3.79,0,.12.01.24.01.36s0,.24-.01.36Z" style="fill:#272727;"/><path d="M221.54,290.68c0-.65-.35-1.06-1.53-1.06h-6.81v-7.52c0-2.05.88-2.94,2.94-2.94h19.38c2.05,0,2.94.88,2.94,2.94v7.52h-4.4c-2.58,0-3.76.59-4.58,3.52l-4.7,16.26c-2.11,7.22-3.58,8.16-10.51,8.16h-4.64c-7.4,0-8.98-.94-11.45-8.63l-5.11-15.79c-.94-2.94-1.88-3.52-5.17-3.52h-3.82v-7.52c0-2.05.88-2.94,2.94-2.94h20.43c2.06,0,2.94.88,2.94,2.94v7.52h-4.99c-1.17,0-1.59.47-1.59,1.23,0,.59.12,1.12.35,2.05l2.99,11.33c.65,2.35,1.7,2.88,3.88,2.88h3.11c2.52,0,3.29-.47,3.93-2.88l3.23-11.86c.12-.47.24-1.12.24-1.7Z" style="fill:#fff;"/><path d="M285.42,317.63c-5.46,0-8.81-1.64-12.04-6.64l-3.05-4.7c-2.23-3.41-3.99-4.52-9.63-4.52h-1.94v2.94c0,1.58.59,2.17,2.17,2.17h6.81v7.52c0,2.17-.76,2.94-2.94,2.94h-20.08c-2.17,0-2.94-.76-2.94-2.94v-7.52h4.29c3.52,0,4.7-1.17,4.7-4.7v-7.87c0-3.7-1.17-4.7-4.7-4.7h-4.29v-7.52c0-2.17.76-2.94,2.94-2.94h29.01c11.8,0,15.38,2.99,15.38,11.8,0,7.69-3.46,10.8-14.44,10.8l2.58,2.76c1.53,1.58,2.76,1.88,4.93,1.88,2.58,0,3.99-.94,5.58-3.17l6.34,6.05c1.06,1,1.06,1.82.24,3.23-2.06,3.52-4.99,5.11-8.92,5.11ZM276.5,295.67c2.88,0,3.99-.76,3.99-3.05s-1.12-2.99-3.99-2.99h-15.56c-1.7,0-2.17.41-2.17,2.17v1.7c0,1.76.47,2.17,2.17,2.17h15.56Z" style="fill:#fff;"/></svg>